<svg width="58" height="53" viewBox="0 0 58 53" fill="none" xmlns="http://www.w3.org/2000/svg">
<path d="M24.5 12V24L32.5 28M44.5 24C44.5 35.0457 35.5457 44 24.5 44C13.4543 44 4.5 35.0457 4.5 24C4.5 12.9543 13.4543 4 24.5 4C35.5457 4 44.5 12.9543 44.5 24Z" stroke="#FAFAFA" stroke-width="4" stroke-linecap="round" stroke-linejoin="round"/>
<path d="M45.5 46C45.7833 46 46.0208 45.9042 46.2125 45.7125C46.4042 45.5208 46.5 45.2833 46.5 45C46.5 44.7167 46.4042 44.4792 46.2125 44.2875C46.0208 44.0958 45.7833 44 45.5 44C45.2167 44 44.9792 44.0958 44.7875 44.2875C44.5958 44.4792 44.5 44.7167 44.5 45C44.5 45.2833 44.5958 45.5208 44.7875 45.7125C44.9792 45.9042 45.2167 46 45.5 46ZM44.5 42H46.5V36H44.5V42ZM45.5 51C44.1167 51 42.8167 50.7375 41.6 50.2125C40.3833 49.6875 39.325 48.975 38.425 48.075C37.525 47.175 36.8125 46.1167 36.2875 44.9C35.7625 43.6833 35.5 42.3833 35.5 41C35.5 39.6167 35.7625 38.3167 36.2875 37.1C36.8125 35.8833 37.525 34.825 38.425 33.925C39.325 33.025 40.3833 32.3125 41.6 31.7875C42.8167 31.2625 44.1167 31 45.5 31C46.8833 31 48.1833 31.2625 49.4 31.7875C50.6167 32.3125 51.675 33.025 52.575 33.925C53.475 34.825 54.1875 35.8833 54.7125 37.1C55.2375 38.3167 55.5 39.6167 55.5 41C55.5 42.3833 55.2375 43.6833 54.7125 44.9C54.1875 46.1167 53.475 47.175 52.575 48.075C51.675 48.975 50.6167 49.6875 49.4 50.2125C48.1833 50.7375 46.8833 51 45.5 51Z" fill="#FAFAFA"/>
</svg>
