<svg width="58" height="55" viewBox="0 0 58 55" fill="none" xmlns="http://www.w3.org/2000/svg">
<path d="M12.5 38V40C12.5 40.5667 12.3083 41.0417 11.925 41.425C11.5417 41.8083 11.0667 42 10.5 42H8.5C7.93333 42 7.45833 41.8083 7.075 41.425C6.69167 41.0417 6.5 40.5667 6.5 40V24L10.7 12C10.9 11.4 11.2583 10.9167 11.775 10.55C12.2917 10.1833 12.8667 10 13.5 10H35.5C36.1333 10 36.7083 10.1833 37.225 10.55C37.7417 10.9167 38.1 11.4 38.3 12L42.5 24V40C42.5 40.5667 42.3083 41.0417 41.925 41.425C41.5417 41.8083 41.0667 42 40.5 42H38.5C37.9333 42 37.4583 41.8083 37.075 41.425C36.6917 41.0417 36.5 40.5667 36.5 40V38H12.5ZM12.1 20H36.9L34.8 14H14.2L12.1 20ZM15.5 32C16.3333 32 17.0417 31.7083 17.625 31.125C18.2083 30.5417 18.5 29.8333 18.5 29C18.5 28.1667 18.2083 27.4583 17.625 26.875C17.0417 26.2917 16.3333 26 15.5 26C14.6667 26 13.9583 26.2917 13.375 26.875C12.7917 27.4583 12.5 28.1667 12.5 29C12.5 29.8333 12.7917 30.5417 13.375 31.125C13.9583 31.7083 14.6667 32 15.5 32ZM33.5 32C34.3333 32 35.0417 31.7083 35.625 31.125C36.2083 30.5417 36.5 29.8333 36.5 29C36.5 28.1667 36.2083 27.4583 35.625 26.875C35.0417 26.2917 34.3333 26 33.5 26C32.6667 26 31.9583 26.2917 31.375 26.875C30.7917 27.4583 30.5 28.1667 30.5 29C30.5 29.8333 30.7917 30.5417 31.375 31.125C31.9583 31.7083 32.6667 32 33.5 32ZM10.5 34H38.5V24H10.5V34Z" fill="#FAFAFA"/>
<circle cx="45.5" cy="43" r="12" fill="#FAFAFA"/>
<path d="M51.3125 41.4961V44.4375H39.6172V41.4961H51.3125ZM47.0703 36.8672V49.2891H43.8711V36.8672H47.0703Z" fill="#00457C"/>
</svg>
