<svg width="49" height="49" viewBox="0 0 49 49" fill="none" xmlns="http://www.w3.org/2000/svg">
<path d="M12.5 38.5V40.5C12.5 41.0667 12.3083 41.5417 11.925 41.925C11.5417 42.3083 11.0667 42.5 10.5 42.5H8.5C7.93333 42.5 7.45833 42.3083 7.075 41.925C6.69167 41.5417 6.5 41.0667 6.5 40.5V24.5L10.7 12.5C10.9 11.9 11.2583 11.4167 11.775 11.05C12.2917 10.6833 12.8667 10.5 13.5 10.5H35.5C36.1333 10.5 36.7083 10.6833 37.225 11.05C37.7417 11.4167 38.1 11.9 38.3 12.5L42.5 24.5V40.5C42.5 41.0667 42.3083 41.5417 41.925 41.925C41.5417 42.3083 41.0667 42.5 40.5 42.5H38.5C37.9333 42.5 37.4583 42.3083 37.075 41.925C36.6917 41.5417 36.5 41.0667 36.5 40.5V38.5H12.5ZM12.1 20.5H36.9L34.8 14.5H14.2L12.1 20.5ZM15.5 32.5C16.3333 32.5 17.0417 32.2083 17.625 31.625C18.2083 31.0417 18.5 30.3333 18.5 29.5C18.5 28.6667 18.2083 27.9583 17.625 27.375C17.0417 26.7917 16.3333 26.5 15.5 26.5C14.6667 26.5 13.9583 26.7917 13.375 27.375C12.7917 27.9583 12.5 28.6667 12.5 29.5C12.5 30.3333 12.7917 31.0417 13.375 31.625C13.9583 32.2083 14.6667 32.5 15.5 32.5ZM33.5 32.5C34.3333 32.5 35.0417 32.2083 35.625 31.625C36.2083 31.0417 36.5 30.3333 36.5 29.5C36.5 28.6667 36.2083 27.9583 35.625 27.375C35.0417 26.7917 34.3333 26.5 33.5 26.5C32.6667 26.5 31.9583 26.7917 31.375 27.375C30.7917 27.9583 30.5 28.6667 30.5 29.5C30.5 30.3333 30.7917 31.0417 31.375 31.625C31.9583 32.2083 32.6667 32.5 33.5 32.5ZM10.5 34.5H38.5V24.5H10.5V34.5Z" fill="#FAFAFA"/>
</svg>
