<svg width="48" height="48" viewBox="0 0 48 48" fill="none" xmlns="http://www.w3.org/2000/svg">
<path d="M24 34C24.5667 34 25.0417 33.8083 25.425 33.425C25.8083 33.0417 26 32.5667 26 32C26 31.4333 25.8083 30.9583 25.425 30.575C25.0417 30.1917 24.5667 30 24 30C23.4333 30 22.9583 30.1917 22.575 30.575C22.1917 30.9583 22 31.4333 22 32C22 32.5667 22.1917 33.0417 22.575 33.425C22.9583 33.8083 23.4333 34 24 34ZM22 26H26V14H22V26ZM24 44C21.2333 44 18.6333 43.475 16.2 42.425C13.7667 41.375 11.65 39.95 9.85 38.15C8.05 36.35 6.625 34.2333 5.575 31.8C4.525 29.3667 4 26.7667 4 24C4 21.2333 4.525 18.6333 5.575 16.2C6.625 13.7667 8.05 11.65 9.85 9.85C11.65 8.05 13.7667 6.625 16.2 5.575C18.6333 4.525 21.2333 4 24 4C26.7667 4 29.3667 4.525 31.8 5.575C34.2333 6.625 36.35 8.05 38.15 9.85C39.95 11.65 41.375 13.7667 42.425 16.2C43.475 18.6333 44 21.2333 44 24C44 26.7667 43.475 29.3667 42.425 31.8C41.375 34.2333 39.95 36.35 38.15 38.15C36.35 39.95 34.2333 41.375 31.8 42.425C29.3667 43.475 26.7667 44 24 44Z" fill="#FAFAFA"/>
</svg>
